<svg xmlns="http://www.w3.org/2000/svg" viewBox="0 0 24 24" width="24" height="24" fill="none" stroke="currentColor" stroke-width="1.5" stroke-linecap="round" stroke-linejoin="round">
  <!-- Brain outline -->
  <path d="M12 2C9.5 2 7.5 3.5 7 5.5C5.5 5.5 4 7 4 9C4 10.5 4.5 11.5 5.5 12C4.5 13 4 14.5 4 16C4 18.5 6 20 8 20C8.5 21.5 10 22 12 22C14 22 15.5 21.5 16 20C18 20 20 18.5 20 16C20 14.5 19.5 13 18.5 12C19.5 11.5 20 10.5 20 9C20 7 18.5 5.5 17 5.5C16.5 3.5 14.5 2 12 2Z"/>
  <!-- Center line -->
  <line x1="12" y1="5" x2="12" y2="19"/>
  <!-- Terminal prompt -->
  <path d="M8.5 10L10.5 12L8.5 14" stroke-width="1.8"/>
  <line x1="13" y1="14" x2="16" y2="14" stroke-width="1.8"/>
</svg>
